<?xml version="1.0" encoding="utf-8"?>
<!-- Generator: Adobe Illustrator 24.3.0, SVG Export Plug-In . SVG Version: 6.00 Build 0)  -->
<svg version="1.1" id="Capa_1" xmlns="http://www.w3.org/2000/svg" xmlns:xlink="http://www.w3.org/1999/xlink" x="0px" y="0px"
	 viewBox="0 0 50 50" style="enable-background:new 0 0 50 50;" xml:space="preserve">
<style type="text/css">
	.st0{fill:#7E8BB6;}
</style>
<g>
	<g>
		<path class="st0" d="M26.1,14.5c0.9-1.5,2.3-3.6,4-5.6h0C31.6,7.2,34.6,5,34.6,5c0.4-0.3,0.4-0.8-0.1-1l-3.5-1.6
			c-0.5-0.2-1.2-0.1-1.5,0.4c0,0-2.6,3.7-5.7,11.7c-9.5-4.3-18.5,1.7-18.5,12.2C5.3,37.5,13.6,54,25,49c12,5.2,19.7-11.6,19.7-22.5
			C44.7,16,36.6,9.8,26.1,14.5z"/>
		<path class="st0" d="M24,11c0.5,0,1-0.5,1.1-1.1c0,0,0.4-4.3-2.6-7.2c-3-3-7.2-2.6-7.2-2.6c-0.5,0-1,0.5-1.1,1.1
			c0,0-0.4,4.3,2.6,7.2C19.7,11.3,24,11,24,11z"/>
	</g>
</g>
</svg>
