<?xml version="1.0" encoding="utf-8"?>
<!-- Generator: Adobe Illustrator 24.3.0, SVG Export Plug-In . SVG Version: 6.00 Build 0)  -->
<svg version="1.1" id="Capa_1" xmlns="http://www.w3.org/2000/svg" xmlns:xlink="http://www.w3.org/1999/xlink" x="0px" y="0px"
	 viewBox="0 0 316.5 316.5" style="enable-background:new 0 0 316.5 316.5;" xml:space="preserve">
<style type="text/css">
	.st0{fill:#7E8BB6;}
</style>
<g>
	<g>
		<path class="st0" d="M303.3,193.5L303.3,193.5c-15.3-15.3-39.3-17.6-57.2-5.3L128.5,70.7c14-20.5,8.7-48.4-11.8-62.4
			c-20.5-14-48.4-8.7-62.4,11.8c-5.2,7.7-8,16.8-7.8,26.1c-12.2-0.4-24,4.3-32.7,13C-4,76.4-4.7,104.8,12.4,122.7
			c15.4,16.2,40.4,18.5,58.6,5.5l117.6,117.6c-14,20.5-8.7,48.4,11.8,62.4c20.5,14,48.4,8.7,62.4-11.8c5.2-7.7,8-16.8,7.8-26.1
			c24.8,0.6,45.3-19.1,45.9-43.8C316.7,214.1,312,202.2,303.3,193.5z"/>
	</g>
</g>
</svg>
