<svg xmlns="http://www.w3.org/2000/svg" viewBox="0 0 475.83 475.74"><defs><style>.cls-1{fill:#7e8bb6;}</style></defs><g id="Layer_2" data-name="Layer 2"><g id="Layer_1-2" data-name="Layer 1"><path class="cls-1" d="M475.74,295.78V281a25.35,25.35,0,0,0-2-9,22.58,22.58,0,0,0-20.15-12.72s-5.87-.2-15.46,0-11.54-5.87-11.54-5.87a169.79,169.79,0,0,1-8-17.22c-3.71-9.39,2-14.87,2-14.87a222.41,222.41,0,0,0,15.26-16.43c9-10.57,0-23.87,0-23.87a46.66,46.66,0,0,0-4.5-5.09c-2-1.76-22.69-21.91-22.69-21.91-16.44-7.24-27.2,4.3-27.2,4.3l-9,9c-10.37,11-17.28,5.94-29.28.72s-12-13-12-32.35-18.26-19.82-18.26-19.82h-17v.08H281a25.35,25.35,0,0,0-9,2,22.6,22.6,0,0,0-12.71,20.16s-.2,5.87,0,15.45-5.87,11.55-5.87,11.55a171.08,171.08,0,0,1-17.22,8c-9.39,3.72-14.87-2-14.87-2a221.56,221.56,0,0,0-16.44-15.26c-10.56-9-23.86,0-23.86,0a46.66,46.66,0,0,0-5.09,4.5c-1.76,2-21.91,22.7-21.91,22.7-7.24,16.43,4.3,27.19,4.3,27.19l9,9c11,10.37,5.93,17.29.72,29.29s-13.05,12-32.35,12-19.83,18.26-19.83,18.26v16.95H116v14.83a25.35,25.35,0,0,0,2,9,22.58,22.58,0,0,0,20.15,12.71s5.87.2,15.46,0,11.54,5.87,11.54,5.87a169,169,0,0,1,8,17.21c3.71,9.39-2,14.87-2,14.87A221.56,221.56,0,0,0,156,386.72c-9,10.56,0,23.87,0,23.87a46.94,46.94,0,0,0,4.5,5.08c2,1.76,22.69,21.92,22.69,21.92,16.44,7.24,27.2-4.31,27.2-4.31l9-9c10.37-10.95,17.28-5.93,29.28-.71s12,13,12,32.34,18.26,19.83,18.26,19.83h17v-.09H310.7a25.35,25.35,0,0,0,9-2,22.58,22.58,0,0,0,12.71-20.15s.2-5.87,0-15.46,5.87-11.54,5.87-11.54a168.53,168.53,0,0,1,17.22-8c9.39-3.72,14.87,2,14.87,2a222.41,222.41,0,0,0,16.43,15.26c10.57,9,23.87,0,23.87,0a46.66,46.66,0,0,0,5.09-4.5c1.76-1.95,21.91-22.69,21.91-22.69,7.24-16.44-4.3-27.2-4.3-27.2l-9-9c-11-10.37-5.94-17.28-.72-29.28S436.7,331,456,331s19.83-18.26,19.83-18.26v-17ZM295.87,359.17a63.39,63.39,0,1,1,63.39-63.39A63.39,63.39,0,0,1,295.87,359.17Z"/><path class="cls-1" d="M132.46,158.56A115.51,115.51,0,0,0,141,166.5c5.5,4.69,12.42,0,12.42,0a23.58,23.58,0,0,0,2.65-2.34c.92-1,11.41-11.81,11.41-11.81a12.54,12.54,0,0,0-2.24-14.16l-4.69-4.69c-5.7-5.39-3.09-9-.37-15.24S167,112,177,112s10.32-9.5,10.32-9.5V93.68h0V86a13.08,13.08,0,0,0-1.06-4.68,11.75,11.75,0,0,0-10.49-6.62s-3.05-.11-8,0-6-3.06-6-3.06a88.72,88.72,0,0,1-4.18-9c-1.93-4.89,1-7.74,1-7.74a115.51,115.51,0,0,0,7.94-8.56c4.69-5.5,0-12.42,0-12.42a23.58,23.58,0,0,0-2.34-2.65c-1-.92-11.81-11.41-11.81-11.41a12.54,12.54,0,0,0-14.16,2.24l-4.69,4.69c-5.39,5.7-9,3.09-15.24.37S112,20.37,112,10.32,102.51,0,102.51,0H93.68V0H86A13.08,13.08,0,0,0,81.28,1.1a11.75,11.75,0,0,0-6.62,10.49s-.11,3.05,0,8-3.06,6-3.06,6a88.72,88.72,0,0,1-9,4.18c-4.89,1.93-7.74-1-7.74-1a115.51,115.51,0,0,0-8.56-7.94c-5.5-4.69-12.42,0-12.42,0a23.58,23.58,0,0,0-2.65,2.34C30.35,24.22,19.86,35,19.86,35A12.54,12.54,0,0,0,22.1,49.17l4.69,4.69c5.7,5.39,3.09,9,.37,15.24s-6.79,6.25-16.84,6.25S0,84.85,0,84.85v8.83H0v7.72a13.08,13.08,0,0,0,1.06,4.68,11.75,11.75,0,0,0,10.49,6.62s3.05.11,8,0,6,3.06,6,3.06a88.72,88.72,0,0,1,4.18,9c1.93,4.89-1,7.74-1,7.74A115.51,115.51,0,0,0,20.86,141c-4.69,5.5,0,12.42,0,12.42a23.58,23.58,0,0,0,2.34,2.65C24.22,157,35,167.5,35,167.5a12.54,12.54,0,0,0,14.16-2.24l4.69-4.69c5.39-5.7,9-3.09,15.24-.37S75.35,167,75.35,177s9.5,10.32,9.5,10.32h8.83v0h7.72a13.08,13.08,0,0,0,4.68-1.06,11.75,11.75,0,0,0,6.62-10.49s.11-3.05,0-8,3.06-6,3.06-6a88.72,88.72,0,0,1,9-4.18C129.61,155.61,132.46,158.56,132.46,158.56ZM93.68,126.68a33,33,0,1,1,33-33A33,33,0,0,1,93.68,126.68Z"/></g></g></svg>