<svg xmlns="http://www.w3.org/2000/svg" viewBox="0 0 24 24"><g id="Layer_2" data-name="Layer 2"><g id="Layer_1-2" data-name="Layer 1"><path d="M13.72,18.65l-3.61,3.61a5.92,5.92,0,0,1-8.38-8.37L6.6,9A5.94,5.94,0,0,1,15,9a5.85,5.85,0,0,1,1.09,1.53l-1.6,1.59a3.82,3.82,0,0,0-6.4-1.65h0L3.2,15.35a3.85,3.85,0,0,0,5.44,5.44l2.43-2.42A7.57,7.57,0,0,0,13.72,18.65Zm.16-16.91L10.31,5.31A7.62,7.62,0,0,1,13,5.59l2.4-2.38A3.85,3.85,0,1,1,20.8,8.65L16,13.48h0a3.86,3.86,0,0,1-5.44,0,3.8,3.8,0,0,1-.95-1.64l-.09.06L8,13.42A6.16,6.16,0,0,0,9.05,15a5.94,5.94,0,0,0,8.38,0l4.83-4.83a5.93,5.93,0,0,0-8.38-8.38Z"/></g></g></svg>