<?xml version="1.0" encoding="utf-8"?>
<!-- Generator: Adobe Illustrator 24.3.0, SVG Export Plug-In . SVG Version: 6.00 Build 0)  -->
<svg version="1.1" id="Capa_1" xmlns="http://www.w3.org/2000/svg" xmlns:xlink="http://www.w3.org/1999/xlink" x="0px" y="0px"
	 viewBox="0 0 462.5 462.5" style="enable-background:new 0 0 462.5 462.5;" xml:space="preserve">
<style type="text/css">
	.st0{fill:#7E8BB6;}
</style>
<path class="st0" d="M433,222.3c-1.5-0.3-2.8-0.6-4-0.9c-13.8-3.6-20.1-5.6-24.8-14.6L386.5,171c-5.7-11-20.3-19.9-32.7-19.9h-31.5
	v-41.3c0-7.4-6-13.4-13.5-13.4L89.8,96.6c-7.2,0-12.7,5.7-12.7,13.3v12.2H21c-11.6,0-21,9.4-21,21s9.4,21,21,21h56.1v20.1H40.4
	c-11.6,0-21,9.4-21,21s9.4,21,21,21h36.7v20.1H59.8c-11.6,0-21,9.4-21,21s9.4,21,21,21h17.4v21.1c0,7.4,6,13.5,13.4,13.5h22.8
	c3.5,24.3,24.5,43.1,49.8,43.1c25.3,0,46.3-18.7,49.8-43.1h92.2c0.5,0,1,0,1.5-0.1c3.5,24.4,24.5,43.1,49.8,43.1
	c25.3,0,46.3-18.7,49.8-43.1h32.7c12.9,0,23.4-10.5,23.4-23.4v-39.6C462.5,228.5,444.7,224.7,433,222.3z M356.6,297.5
	c10.1,0,18.3,8.2,18.3,18.3s-8.2,18.3-18.3,18.3c-10.1,0-18.3-8.2-18.3-18.3S346.5,297.5,356.6,297.5z M322.3,219.4v-48.8h24
	c9.2,0,20.6,6.9,24.9,15.1l15.7,31.8c0.3,0.6,0.7,1.3,1,1.8L322.3,219.4L322.3,219.4z M181.5,315.8c0,10.1-8.2,18.3-18.3,18.3
	c-10.1,0-18.3-8.2-18.3-18.3s8.2-18.3,18.3-18.3C173.3,297.5,181.5,305.7,181.5,315.8z"/>
</svg>
